<?xml version="1.0" encoding="utf-8"?>
<!-- Generator: Adobe Illustrator 20.1.0, SVG Export Plug-In . SVG Version: 6.00 Build 0)  -->
<svg version="1.1" id="artwork" xmlns="http://www.w3.org/2000/svg" xmlns:xlink="http://www.w3.org/1999/xlink" x="0px" y="0px"
	 viewBox="0 0 306.1 382.7" enable-background="new 0 0 306.1 382.7" xml:space="preserve">
<g>
	<rect y="0" fill="none" width="306.1" height="382.7"/>
	<g>
		<g>
			<g>
				<path fill="#294885" d="M173.8,151.8c-0.2-0.7-0.6-2.8-0.4-3.3c0.2-0.6,0.6-1.7,0.9-2.6c1.6-4.8,0.9-9.8,0.4-10.9
					c-0.1-0.2-0.3-0.3-0.5-0.3c-2.3-0.4-4.2,1.1-6.6,3.9c-0.9,1.1-2,2-2.2,0.4c-0.2-1,0.6-3.1-0.3-3c-2.2,0.2-3.6,1.5-4.9,3.1
					c-1,1.3-1,1.9-2.1,2c-2.2,0.1-3.2,0.2-5,0.6c-1.7,0.4-3.2,1-4.2,1.7c-1.3,0.8-2.2,2-5.3,2c-4.8,0-11,0.2-13.3,0.6
					c-2.4,0.5-2.8,2-1.5,4.2c1.5,2.5,2,8,5.1,8.8c0.8,1.7,1.4,3.1,2.2,3c0.3-0.1,0.6-0.9,0.8-1.7c0.4-1.7,2.1-1.8,3.2-1.8
					c2.8-0.1,4.9,0,6.7,1.1c1.3,0.7,1.9,2,1.7,2.5c-0.4,0.9-1.3-0.3-6.1,0.6c-2.7,0.5-4.3,2-7.7,2c-5.1,0-7.6-3.5-8.5-6.6
					c-0.5-1.6-0.8-3-2.6-1.3c-2.3,2.2-2.5,6.4-0.1,8.9c1.6,1.7,3.9,2.6,6.6,2.8c0.8,0.1,2.5,0.1,3.9,0c0,0-0.4,1.1,0.2,2
					c0.6,0.9,2.3,1.7,5.1,0.8c4-1.2,7.4-2.3,10.2-0.2c0.5,0.4,1.1,1.1,1.1,1.5c0,0.8-3,3.2-11.4,5.4c-10.3,2.8-12.8,9.7-11.7,13.5
					c0.1,0.3,0.3,0.7,0.6,0.7s1.9-0.9,2.8-1.1c1.8-0.3,1,1,0.8,2.6c-0.8,5.7,7.4,13,14.6,18c4,2.8,6.1,3.7,7.1,3.7s3.2-0.8,7.1-3.7
					c11.2-8.3,18.7-19.9,17.5-26.1c-0.7-3.5-2.5-5.7-1.6-6.2c1-0.6,3.2,1,3.7,0.7c1.1-0.7,1.6-7.2-0.4-14
					C177.3,159.7,175.1,157.1,173.8,151.8z M152.6,149.6c-1,0.1-2.1-0.4-1.9-0.7c0.1-0.1,0.4-0.5,0.2-1c-0.3-0.6-1.3-0.7-1.9-0.2
					c0.5-1.2,2.2-1.9,3.6-1.9c2,0,2.4,1.1,2.3,2C154.8,148.8,153.9,149.5,152.6,149.6z"/>
				<g>
					<path fill="#3979B5" d="M59.8,148.3c1.8-13,9.1-22.7,17.2-27.3c13-7.4,25.9-4.6,34.9-2.6c1.3,0.3,2.4,0.1,2.8-0.7
						c0.3-0.7,0.1-1.4-1-2.6c-4.2-4.5-14-14.2-15.2-15.2c-3-2.5-7.9-3.9-11.7-3.9c-22,0-35.8,16.7-35.8,35.3
						c0,4.9,1.4,11.2,2.9,14.7c1.4,3.3,2.9,6.2,4.1,6.2C59.4,152.2,59.5,150.2,59.8,148.3z"/>
					<path fill="#3979B5" d="M186,112.4c-0.6-0.5-0.8-1.4-0.6-2.8c0.9-9.3,0-18.5-1.9-22.8c-2.4-5.5-8.1-13.6-12.6-18.3
						c-5.8-6.1-7.9-7.8-10.6-9.8c-0.7-0.5-2.1-1.3-2.1-2c0-0.8,1.1-1.5,2.5-2.2c2.5-1.2,6.2-2.8,12.9-3.3c8-0.7,19.4,1,28.1,12.1
						c4.9,6.2,5.5,13.7,5.5,18.8c0,6.1-1,11.5-3.9,14.7c-4.3,4.7-13.4,13.8-14.6,14.8C188.1,112.1,186.8,113,186,112.4z"/>
					<path fill="#3979B5" d="M217.5,216.4c22,1.4,37.6-17.1,37.6-35.3c0-6.9-1-10.6-2.8-14.4c-1.6-3.3-3.4-5.5-4.4-5.5
						c-1.1,0-1.4,1.5-1.5,2.5c-4.3,22.3-20,35.2-30.7,35.4c-3.1,0.1-7-0.7-7.3-2.2c-0.5-2.2,3.3-6.8,3.3-15.6
						c0-3.5-1.6-10-11.3-10.3c-8.6-0.3-12.8,7.7-12.8,14.9C187.4,200.7,198.3,215.2,217.5,216.4z"/>
				</g>
				<g>
					<path fill="#255C9E" d="M88.6,216.4c-22,1.4-37.6-17.1-37.6-35.3c0-6.9,1-10.6,2.8-14.4c1.6-3.3,3.4-5.5,4.4-5.5
						c1.1,0,1.4,1.5,1.5,2.5c4.3,22.3,20,35.2,30.7,35.4c3.1,0.1,7-0.7,7.3-2.2c0.5-2.2-3.3-6.8-3.3-15.6c0-3.5,1.6-10,11.3-10.3
						c8.6-0.3,12.8,7.7,12.8,14.9C118.7,200.7,107.8,215.2,88.6,216.4z"/>
					<path fill="#255C9E" d="M120.1,112.4c0.6-0.5,0.8-1.4,0.6-2.8c-0.9-9.3,0-18.5,1.9-22.8c2.4-5.5,8.1-13.6,12.6-18.3
						c5.8-6.1,7.9-7.8,10.6-9.8c0.7-0.5,2.1-1.3,2.1-2c0-0.8-1.1-1.5-2.5-2.2c-2.5-1.2-6.2-2.8-12.9-3.3c-8-0.7-19.4,1-28.1,12.1
						C99.6,69.4,99,77,99,82.1c0,6.1,1,11.5,3.9,14.7c4.3,4.7,13.4,13.8,14.6,14.8C118,112.1,119.3,113,120.1,112.4z"/>
					<path fill="#255C9E" d="M246.3,148.3c-1.8-13-9.1-22.7-17.2-27.3c-13-7.4-25.9-4.6-34.9-2.6c-1.3,0.3-2.4,0.1-2.8-0.7
						c-0.3-0.7-0.1-1.4,1-2.6c4.2-4.5,14-14.2,15.2-15.2c3-2.5,7.9-3.9,11.7-3.9c22,0,35.8,16.7,35.8,35.3c0,4.9-1.4,11.2-2.9,14.7
						c-1.4,3.3-2.9,6.2-4.1,6.2C246.7,152.2,246.6,150.2,246.3,148.3z"/>
				</g>
				<g>
					<path fill="#F9B200" d="M95.6,121.2c9.8,0,22,3.4,26.3,6.7c1.4,1,1.8,2.6-0.1,4.5c-2.5,2.5-7.5,7.5-9.5,9.5
						c-1.8,1.8-2.5,2.9-2.5,6.6c0,5.6,0,12.2,0,14.6c0,1.8-0.7,2.5-3.3,2.8c-0.7,0.1-2,0.2-3.1,0.3c-3.5,0.3-8.1,1.6-11.4,6.7
						c-4.2,6.5-1.6,15-0.5,18.2c0.8,2.4,0.7,3.8-2.9,3.1c-9.9-2-25.2-20.2-24.3-40.4C65.2,132.9,79,121.2,95.6,121.2z"/>
					<path fill="#F9B200" d="M210.6,121.2c-9.8,0-22,3.4-26.3,6.7c-1.4,1-1.8,2.6,0.1,4.5c2.5,2.5,7.5,7.5,9.5,9.5
						c1.8,1.8,2.5,2.9,2.5,6.6c0,5.6,0,12.2,0,14.6c0,1.8,0.7,2.5,3.3,2.8c0.7,0.1,2,0.2,3.1,0.3c3.5,0.3,8.1,1.6,11.4,6.7
						c4.2,6.5,1.6,15,0.5,18.2c-0.8,2.4-0.7,3.8,2.9,3.1c9.9-2,25.2-20.2,24.3-40.4C240.9,132.9,227.1,121.2,210.6,121.2z"/>
					<path fill="#F9B200" d="M170.2,223.2c4.9-3.7,7.6-6.2,11.7-10.4c1.9-1.9,4.1-2.2,6.4,0c3.2,3.1,7.1,5.6,12.8,6
						c2.3,0.2,3.5-0.5,5.1,0.2c0.8,0.4,1.6,1.5,1.7,3.4c0.2,7.5-3.4,16.3-14.3,18.2c-7.1,1.3-14.2-0.9-17.7-4.2
						c-2.4-2.3-5.1-4.8-6.6-6.9C167.7,227.6,167.7,225.1,170.2,223.2z"/>
					<path fill="#F9B200" d="M135.9,223.2c-4.9-3.7-7.6-6.2-11.7-10.4c-1.9-1.9-4.1-2.2-6.4,0c-3.2,3.1-7.1,5.6-12.8,6
						c-2.3,0.2-3.5-0.5-5.1,0.2c-0.8,0.4-1.6,1.5-1.7,3.4c-0.2,7.5,3.4,16.3,14.3,18.2c7.1,1.3,14.2-0.9,17.7-4.2
						c2.4-2.3,5.1-4.8,6.6-6.9C138.5,227.6,138.4,225.1,135.9,223.2z"/>
				</g>
				<g>
					<path fill="#F49E00" d="M126.4,91.5c0.9-4.7,6.8-13.6,12.6-19.6c5.9-6.1,11-10.9,14.1-10.9s8.2,4.8,14.1,10.9
						c5.7,6,11.6,14.9,12.6,19.6c0.9,4.7,2.2,14.5-1.2,28.7c-1,4-3.2,4.4-5.7,4.4c-1.1,0-38.4,0-39.5,0c-2.5,0-4.7-0.4-5.7-4.4
						C124.2,106,125.5,96.2,126.4,91.5z"/>
					<path fill="#F49E00" d="M153.1,231.9c2.8,0,5-1.7,6.9-2c1.6-0.2,2.7,0.3,4.1,1.8c2.1,2.1,5.2,5.5,7.3,8
						c1.5,1.8,3.5,4.8,0.7,11.9c-3.4,8.7-15.5,20.1-19.1,20.1s-15.7-11.4-19.1-20.1c-2.8-7.1-0.7-10.1,0.7-11.9c2-2.5,5.1-5.9,7.3-8
						c1.5-1.5,2.5-2,4.1-1.8C148,230.2,150.3,231.9,153.1,231.9z"/>
				</g>
			</g>
		</g>
		<g>
			<path fill="#294885" d="M81.3,301.8c-5.1,0-6,2-6,3.3c0,5.9,14.9,4.2,14.9,15.4c0,7.4-6.4,11-14.7,11c-7.2,0-9.1-3.6-9.1-6.7
				c0-0.6,0-1.1,0.2-1.7c0.2-0.5,0.5-0.8,1.2-0.4c2.6,1.3,5,1.8,7.4,1.8c3.8,0,6.7-1.1,6.7-3.7c0-5.9-14.9-4.7-14.9-15.6
				c0-6.9,4.9-10.3,14.7-10.3c1.6,0,4.2,0.2,6,0.7c0.5,0.1,0.7,0.5,0.6,0.9l-0.8,5.4c-0.1,0.6-0.4,0.7-1,0.6
				C84.8,301.9,82.7,301.8,81.3,301.8z"/>
			<path fill="#294885" d="M104.3,295c2.4,0,4.2,1.8,4.2,4.2v12.2l11.2-15.1c0.5-0.7,1.2-1,2.1-1h6.3c0.9,0,1.4,0.7,0.8,1.4
				l-11.5,15.1c-0.2,0.2-0.2,0.4,0,0.6c4.6,5.9,10.7,14.6,13.1,16.8c0.5,0.4,0.3,0.8,0,1c-0.8,0.6-2.2,1.4-4.1,1.4
				c-3.8,0-5.9-1.6-8-4.6l-9.9-14.1v17.2c0,0.4-0.4,0.8-0.8,0.8h-6.5c-0.4,0-0.8-0.4-0.8-0.8V302c-2.7-0.4-3.9-2.1-4.2-5.9
				c-0.1-0.6,0.4-0.9,1-0.9C99.7,295.2,101.8,295,104.3,295z"/>
			<path fill="#294885" d="M153.7,295c5.1,0,6.3,1.7,7.4,4.7l9.2,25.7c1,2.6,1.7,3.8,2.2,4.5c0.2,0.2,0.2,0.5-0.1,0.7
				c-0.7,0.5-1.9,1.1-4,1.1c-3.5,0-5.6-1.3-6.6-4.3l-1.1-3.4c-0.2-0.5-0.4-0.7-0.9-0.7h-13.4c-0.5,0-0.7,0.2-0.8,0.7l-2.1,6.2
				c-0.2,0.4-0.4,0.7-1,0.7h-6.8c-0.6,0-1-0.6-0.8-1.2l9.8-27.8c-2.7-0.4-3.9-2.1-4.2-5.9c-0.1-0.6,0.4-0.9,1-0.9
				C145.7,295.2,149.5,295,153.7,295z M158.4,315.7l-4-12.8c-0.3-0.8-0.6-1.2-1.3-1.2h-0.7l-4.5,14c-0.1,0.4,0.1,0.6,0.5,0.6h9.6
				C158.4,316.3,158.6,316.1,158.4,315.7z"/>
			<path fill="#294885" d="M174.8,296.1c-0.1-0.6,0.4-0.9,1-0.9c2.7-0.1,5-0.3,7-0.3c2.5,0,4.2,1.4,4.2,4.2V317
				c0,4.8,2.4,7.3,6.8,7.3c4.3,0,6.8-2.5,6.8-7.3v-21c0-0.4,0.4-0.8,0.8-0.8h6.5c0.4,0,0.8,0.4,0.8,0.8v22.7
				c0,8.1-5.4,12.6-14.8,12.6c-9.7,0-14.8-4.1-14.8-12.6V302C176.4,301.6,175.1,299.9,174.8,296.1z"/>
			<path fill="#294885" d="M233.2,302.8v16.9c0,3.8,0.8,4.7,3,5c0.6,0.1,1.5,0.1,2.1,0.1c0.8-0.1,1,0.4,0.9,1.3
				c-0.4,2.5-2.8,5.4-7,5.4c-4.9,0-6.9-2.6-6.9-9.3v-19.3c0-0.3-0.2-0.5-0.5-0.5h-8.1c-0.4,0-0.8-0.4-0.8-0.8V296
				c0-0.4,0.4-0.8,0.8-0.8H242c0.4,0,0.8,0.4,0.8,0.8v5.5c0,0.4-0.4,0.8-0.8,0.8h-8.1C233.4,302.3,233.2,302.5,233.2,302.8z"/>
		</g>
	</g>
</g>
</svg>
